<svg width="37" height="37" viewBox="0 0 37 37" fill="none" xmlns="http://www.w3.org/2000/svg">
<path d="M18.4815 0C8.2695 0 0 8.28801 0 18.5C0 28.712 8.2695 37.0001 18.4815 37.0001C28.712 37.0001 37 28.712 37 18.5C37 8.28801 28.712 0 18.4815 0ZM31.302 11.1H25.8445C25.2525 8.78751 24.4015 6.56751 23.2915 4.51401C26.6955 5.67951 29.526 8.04751 31.302 11.1ZM18.5 3.77401C20.0355 5.99401 21.238 8.45451 22.0335 11.1H14.9665C15.762 8.45451 16.9645 5.99401 18.5 3.77401ZM4.181 22.2C3.885 21.016 3.7 19.7765 3.7 18.5C3.7 17.2235 3.885 15.984 4.181 14.8H10.434C10.286 16.021 10.175 17.242 10.175 18.5C10.175 19.758 10.286 20.979 10.434 22.2H4.181ZM5.698 25.9H11.1555C11.7475 28.2125 12.5985 30.4326 13.7085 32.4861C10.3045 31.3206 7.474 28.971 5.698 25.9V25.9ZM11.1555 11.1H5.698C7.474 8.02901 10.3045 5.67951 13.7085 4.51401C12.5985 6.56751 11.7475 8.78751 11.1555 11.1V11.1ZM18.5 33.2261C16.9645 31.006 15.762 28.5455 14.9665 25.9H22.0335C21.238 28.5455 20.0355 31.006 18.5 33.2261ZM22.829 22.2H14.171C14.0045 20.979 13.875 19.758 13.875 18.5C13.875 17.242 14.0045 16.0025 14.171 14.8H22.829C22.9955 16.0025 23.125 17.242 23.125 18.5C23.125 19.758 22.9955 20.979 22.829 22.2ZM23.2915 32.4861C24.4015 30.4326 25.2525 28.2125 25.8445 25.9H31.302C29.526 28.9525 26.6955 31.3206 23.2915 32.4861V32.4861ZM26.566 22.2C26.714 20.979 26.825 19.758 26.825 18.5C26.825 17.242 26.714 16.021 26.566 14.8H32.819C33.115 15.984 33.3 17.2235 33.3 18.5C33.3 19.7765 33.115 21.016 32.819 22.2H26.566Z" fill="#898989"/>
</svg>
