<svg width="84" height="64" viewBox="0 0 84 64" fill="none" xmlns="http://www.w3.org/2000/svg">
<path d="M40.1475 40.8621C37.7745 40.8621 35.859 42.7285 35.859 45.0406C35.859 46.8652 34.2008 47.8263 33 47.8263C34.3151 49.5255 36.5595 50.6119 38.718 50.6119C41.8772 50.6119 44.436 48.1188 44.436 45.0406C44.436 42.7285 42.5205 40.8621 40.1475 40.8621ZM59.746 27.8111L57.8305 25.9447C57.273 25.4015 56.3724 25.4015 55.8149 25.9447L43.0065 38.4246L46.9377 42.2549L59.746 29.775C60.3036 29.2318 60.3036 28.3543 59.746 27.8111Z" fill="current"/>
<path d="M20.264 5.42977C9.07375 8.42818 2.4313 19.9332 5.42971 31.1234C8.42812 42.3136 19.9332 48.9561 31.1234 45.9577C32.9922 45.4569 34.0965 43.5442 33.5957 41.6754C33.3605 40.7973 32.8116 40.0997 32.1083 39.6366C31.4336 39.19 30.8847 38.4924 30.6555 37.6368C30.1547 35.7681 31.259 33.8553 33.1278 33.3546L37.1131 32.2867C43.3274 30.6216 47.0194 24.2267 45.3543 18.0125C42.6877 8.06061 31.4542 2.43136 20.264 5.42977ZM13.3101 29.0119C11.4413 29.5126 9.5286 28.4083 9.02786 26.5395C8.52712 24.6707 9.63145 22.758 11.5002 22.2572C13.369 21.7565 15.2818 22.8608 15.7825 24.7296C16.2833 26.5984 15.1789 28.5111 13.3101 29.0119ZM17.6516 18.1958C15.7828 18.6965 13.87 17.5922 13.3693 15.7234C12.8686 13.8546 13.9729 11.9419 15.8417 11.4411C17.7105 10.9404 19.6232 12.0447 20.124 13.9135C20.6247 15.7823 19.5204 17.695 17.6516 18.1958ZM28.9093 15.1793C27.0405 15.68 25.1278 14.5757 24.6271 12.7069C24.1263 10.8381 25.2306 8.92536 27.0994 8.42462C28.9682 7.92388 30.881 9.0282 31.3817 10.897C31.8825 12.7658 30.7781 14.6785 28.9093 15.1793ZM38.0772 22.3756C36.2084 22.8763 34.2957 21.772 33.7949 19.9032C33.2942 18.0344 34.3985 16.1217 36.2673 15.6209C38.1361 15.1202 40.0488 16.2245 40.5496 18.0933C41.0503 19.9621 39.946 21.8748 38.0772 22.3756Z" fill="current"/>
</svg>
