<svg width="25" height="40" viewBox="0 0 25 40" fill="none" xmlns="http://www.w3.org/2000/svg">
<path d="M10 35.0001C10 37.7501 7.75 40.0001 5 40.0001C2.25 40.0001 0 37.7501 0 35.0001C0 32.2501 2.25 30.0001 5 30.0001C7.75 30.0001 10 32.2501 10 35.0001ZM5 15.0001C2.25 15.0001 0 17.2501 0 20.0001C0 22.7501 2.25 25.0001 5 25.0001C7.75 25.0001 10 22.7501 10 20.0001C10 17.2501 7.75 15.0001 5 15.0001ZM5 6.10352e-05C2.25 6.10352e-05 0 2.25006 0 5.00006C0 7.75006 2.25 10.0001 5 10.0001C7.75 10.0001 10 7.75006 10 5.00006C10 2.25006 7.75 6.10352e-05 5 6.10352e-05ZM20 10.0001C22.75 10.0001 25 7.75006 25 5.00006C25 2.25006 22.75 6.10352e-05 20 6.10352e-05C17.25 6.10352e-05 15 2.25006 15 5.00006C15 7.75006 17.25 10.0001 20 10.0001ZM20 15.0001C17.25 15.0001 15 17.2501 15 20.0001C15 22.7501 17.25 25.0001 20 25.0001C22.75 25.0001 25 22.7501 25 20.0001C25 17.2501 22.75 15.0001 20 15.0001ZM20 30.0001C17.25 30.0001 15 32.2501 15 35.0001C15 37.7501 17.25 40.0001 20 40.0001C22.75 40.0001 25 37.7501 25 35.0001C25 32.2501 22.75 30.0001 20 30.0001Z" fill="#898989"/>
</svg>
