<svg width="45" height="45" viewBox="0 0 45 45" fill="none" xmlns="http://www.w3.org/2000/svg">
<path d="M34.8955 45.0001H38.2909C40.0091 45.0001 41.4205 43.6904 41.625 42.0123L45 8.28787H34.7727V0H30.7432V8.28787H20.5773L21.1909 13.0764C24.6886 14.0382 27.9614 15.7776 29.925 17.7013C32.8705 20.6071 34.8955 23.6153 34.8955 28.5266V45.0001ZM0 42.9537V40.9277H30.7432V42.9537C30.7432 44.0792 29.8227 45.0001 28.6773 45.0001H2.06591C0.920455 45.0001 0 44.0792 0 42.9537ZM30.7432 28.629C30.7432 12.2579 0 12.2579 0 28.629H30.7432ZM0.0409091 32.7422H30.7227V36.835H0.0409091V32.7422Z" fill="current"/>
</svg>
