<svg width="55" height="28" viewBox="0 0 55 28" fill="none" xmlns="http://www.w3.org/2000/svg">
<path d="M25.657 6.41667V23.3333C25.657 25.9 23.5578 28 20.9921 28H12.4787C11.2191 28 10.0296 27.4983 9.1549 26.6117L0 17.3017C0 17.3017 1.46945 15.8667 1.5161 15.8433C1.77267 15.6217 2.08755 15.505 2.43742 15.505C2.69399 15.505 2.92724 15.575 3.13716 15.6917C3.18381 15.7033 8.16361 18.5617 8.16361 18.5617V4.66667C8.16361 3.69833 8.94498 2.91667 9.91295 2.91667C10.8809 2.91667 11.6623 3.69833 11.6623 4.66667V12.8333H12.8285V1.75C12.8285 0.781667 13.6099 0 14.5779 0C15.5458 0 16.3272 0.781667 16.3272 1.75V12.8333H17.4934V2.91667C17.4934 1.94833 18.2748 1.16667 19.2428 1.16667C20.2108 1.16667 20.9921 1.94833 20.9921 2.91667V12.8333H22.1584V6.41667C22.1584 5.44833 22.9397 4.66667 23.9077 4.66667C24.8757 4.66667 25.657 5.44833 25.657 6.41667Z" fill="#418AFF"/>
<path d="M29.343 6.41667V23.3333C29.343 25.9 31.4422 28 34.0079 28H42.5213C43.7809 28 44.9704 27.4983 45.8451 26.6117L55 17.3017C55 17.3017 53.5306 15.8667 53.4839 15.8433C53.2273 15.6217 52.9124 15.505 52.5626 15.505C52.306 15.505 52.0728 15.575 51.8628 15.6917C51.8162 15.7033 46.8364 18.5617 46.8364 18.5617V4.66667C46.8364 3.69833 46.055 2.91667 45.0871 2.91667C44.1191 2.91667 43.3377 3.69833 43.3377 4.66667V12.8333H42.1715V1.75C42.1715 0.781667 41.3901 0 40.4221 0C39.4542 0 38.6728 0.781667 38.6728 1.75V12.8333H37.5066V2.91667C37.5066 1.94833 36.7252 1.16667 35.7572 1.16667C34.7892 1.16667 34.0079 1.94833 34.0079 2.91667V12.8333H32.8416V6.41667C32.8416 5.44833 32.0603 4.66667 31.0923 4.66667C30.1243 4.66667 29.343 5.44833 29.343 6.41667Z" fill="#418AFF"/>
</svg>
