<svg width="20" height="20" viewBox="0 0 20 20" fill="none" xmlns="http://www.w3.org/2000/svg">
<path d="M9.99 0C4.47 0 0 4.48 0 10C0 15.52 4.47 20 9.99 20C15.52 20 20 15.52 20 10C20 4.48 15.52 0 9.99 0ZM10 18C5.58 18 2 14.42 2 10C2 5.58 5.58 2 10 2C14.42 2 18 5.58 18 10C18 14.42 14.42 18 10 18Z" fill="white"/>
<path d="M10.1339 5.71802C11.3299 5.71802 12.2009 5.97802 12.7469 6.49802C13.3016 7.00935 13.5789 7.71568 13.5789 8.61702C13.5789 9.15435 13.4663 9.66135 13.2409 10.138C13.0156 10.606 12.6386 10.983 12.1099 11.269C11.5899 11.555 10.8793 11.698 9.97792 11.698H9.13292V15H7.16992V5.71802H10.1339ZM10.0299 7.33002H9.13292V10.086H9.78292C10.3376 10.086 10.7753 9.97768 11.0959 9.76102C11.4253 9.53568 11.5899 9.17602 11.5899 8.68202C11.5899 7.78068 11.0699 7.33002 10.0299 7.33002Z" fill="white"/>
</svg>
