<svg width="26" height="26" viewBox="0 0 26 26" fill="none" xmlns="http://www.w3.org/2000/svg">
<path d="M0 2.88889V11.5556H7.22222L5.77778 5.77778L11.5556 7.22222V0H2.88889C1.3 0 0 1.3 0 2.88889ZM7.22222 14.4444H0V23.1111C0 24.7 1.3 26 2.88889 26H11.5556V18.7778L5.77778 20.2222L7.22222 14.4444ZM20.2222 20.2222L14.4444 18.7778V26H23.1111C24.7 26 26 24.7 26 23.1111V14.4444H18.7778L20.2222 20.2222ZM23.1111 0H14.4444V7.22222L20.2222 5.77778L18.7778 11.5556H26V2.88889C26 1.3 24.7 0 23.1111 0Z" fill="#418AFF"/>
</svg>
