<svg width="44" height="44" viewBox="0 0 44 44" fill="none" xmlns="http://www.w3.org/2000/svg">
<circle cx="22" cy="22" r="22" fill="#418AFF"/>
<path d="M26.4351 24.0629H25.7124L25.4563 23.8159C26.3528 22.773 26.8925 21.4191 26.8925 19.9463C26.8925 16.6621 24.2304 14 20.9463 14C17.6621 14 15 16.6621 15 19.9463C15 23.2304 17.6621 25.8925 20.9463 25.8925C22.4191 25.8925 23.773 25.3528 24.8159 24.4563L25.0629 24.7124V25.4351L29.6369 30L31 28.6369L26.4351 24.0629V24.0629ZM20.9463 24.0629C18.6684 24.0629 16.8296 22.2241 16.8296 19.9463C16.8296 17.6684 18.6684 15.8296 20.9463 15.8296C23.2241 15.8296 25.0629 17.6684 25.0629 19.9463C25.0629 22.2241 23.2241 24.0629 20.9463 24.0629Z" fill="white"/>
</svg>
