<svg width="28" height="24" viewBox="0 0 28 24" fill="none" xmlns="http://www.w3.org/2000/svg">
<path d="M4.95955 24L3.35844 15.6975H0V13.2101H2.88982L2.4212 10.7899H0V8.30252H1.95258L0.351464 0H4.76429L6.24826 8.30252H9.841L11.5202 0H16.4798L18.1199 8.30252H21.7517L23.1966 0H27.6095L26.0084 8.30252H28V10.7899H25.5397L25.0711 13.2101H28V15.6975H24.6025L23.0014 24H17.5342L15.7768 15.6975H12.1841L10.4658 24H4.95955ZM13.59 8.30252H14.371L13.9805 5.21008L13.59 8.30252ZM7.10739 13.2101H8.86471L9.33333 10.7899H6.67782L7.10739 13.2101ZM12.7308 13.2101H15.2301L14.7225 10.7899H13.2385L12.7308 13.2101ZM19.1353 13.2101H20.9317L21.3222 10.7899H18.6276L19.1353 13.2101ZM7.92747 19.0588L8.39609 15.6975H7.49791L7.92747 19.0588ZM20.0725 19.0588L20.5021 15.6975H19.5649L20.0725 19.0588Z" fill="#418AFF"/>
</svg>
