<svg width="254" height="43" viewBox="0 0 254 43" fill="none" xmlns="http://www.w3.org/2000/svg">
<path d="M58.5124 32.9534C57.4777 32.5731 56.8289 31.8952 56.8289 30.9528C56.8289 29.8616 57.7233 28.82 59.1964 28.82C60.5292 28.82 61.4938 29.7955 64.0893 29.7955C65.9131 29.7955 67.0706 29.0845 67.0706 27.5965C67.0706 23.7277 57.1796 24.8519 57.1796 17.6764C57.1796 13.3115 60.8449 11.1787 65.5098 11.1787C67.1583 11.1787 68.8243 11.4763 70.1747 11.9227C71.5777 12.3691 72.0862 13.0801 72.0862 13.9563C72.0862 14.9814 71.262 16.023 69.9292 16.023C68.8945 16.023 67.7019 15.2129 65.5449 15.2129C63.8964 15.2129 62.8091 15.9238 62.8091 17.2465C62.8091 21.0823 72.7 20.0242 72.7 27.0674C72.7 31.6472 68.7892 33.9454 64.0717 33.9454C62.1426 33.9619 59.9505 33.5982 58.5124 32.9534Z" fill="white"/>
<path d="M92.9029 23.0168V31.2174C92.9029 32.6724 91.7454 33.7636 90.2372 33.7636C88.694 33.7636 87.5365 32.6724 87.5365 31.2174V23.1491C87.5365 21.1154 86.607 20.3714 84.941 20.3714C83.7485 20.3714 82.6085 20.7021 81.7492 21.3138V31.234C81.7492 32.6889 80.5918 33.7801 79.0485 33.7801C77.5403 33.7801 76.3828 32.6889 76.3828 31.234V12.3196C76.3828 10.8647 77.5403 9.77344 79.0485 9.77344C80.5918 9.77344 81.7492 10.8647 81.7492 12.3196V18.685C83.6608 17.197 85.1339 16.6183 87.3611 16.6183C90.9913 16.6183 92.9029 18.7842 92.9029 23.0168Z" fill="white"/>
<path d="M111.843 23.5955V31.3497C111.843 32.7385 110.756 33.7636 109.283 33.7636C108.055 33.7636 107.055 32.9865 106.81 31.8953C105.74 33.4825 103.794 33.9289 102.022 33.9289C98.4271 33.9289 96.3402 32.0607 96.3402 28.7374C96.3402 25.3811 98.9708 23.579 103.636 23.579H106.512V22.8019C106.512 21.0328 105.249 20.4045 103.46 20.4045C101.707 20.4045 100.163 20.884 99.5145 20.884C98.3921 20.884 97.5678 20.14 97.5678 19.148C97.5678 18.437 97.9186 17.693 99.1111 17.3127C100.479 16.9325 102.671 16.6349 104.53 16.6349C108.862 16.6183 111.843 18.6189 111.843 23.5955ZM106.512 29.5972V26.1086H104.67C102.619 26.1086 101.724 26.9187 101.724 28.4067C101.724 29.6964 102.373 30.6057 103.951 30.6057C104.933 30.6057 105.793 30.242 106.512 29.5972Z" fill="white"/>
<path d="M129.012 18.9494C129.012 20.1398 128.223 21.2476 126.469 21.2476C124.715 21.2476 123.12 21.8924 121.717 22.8678V31.2338C121.717 32.6888 120.594 33.78 119.051 33.78C117.508 33.78 116.35 32.6888 116.35 31.2338V19.1643C116.35 17.8086 117.438 16.767 118.911 16.767C120.384 16.767 121.471 17.7921 121.471 19.1643V19.9745C122.769 18.0731 124.347 16.6843 126.469 16.6843C128.188 16.6512 129.012 17.7755 129.012 18.9494Z" fill="white"/>
<path d="M145.374 31.4322C145.374 32.2423 144.971 32.8871 143.971 33.2013C142.498 33.7138 140.815 33.9784 138.973 33.9784C133.73 33.9784 130.029 31.0354 130.029 25.2652C130.029 20.3547 132.94 16.6182 138.254 16.6182C143.322 16.6182 145.515 19.9083 145.515 24.0417C145.515 25.662 144.55 26.4556 142.639 26.4556H135.448C135.413 28.9687 136.921 30.3906 139.587 30.3906C141.534 30.3906 142.884 29.6466 143.691 29.6466C144.866 29.6631 145.374 30.5063 145.374 31.4322ZM135.483 23.9094H140.797C140.727 21.8428 140.113 20.1894 138.395 20.1894C136.343 20.2059 135.554 22.0412 135.483 23.9094Z" fill="white"/>
<path d="M154.388 33.995C152.6 33.995 150.969 33.7305 149.496 33.1849C148.408 32.7385 148.057 32.0606 148.057 31.3827C148.057 30.4403 148.777 29.6633 149.846 29.6633C151.004 29.6633 152.389 30.5065 154.739 30.5065C155.897 30.5065 156.721 30.0931 156.721 28.9854C156.721 26.588 148.391 27.5966 148.391 21.8429C148.391 18.3543 151.653 16.6514 155.511 16.6514C157.124 16.6514 158.597 16.9159 159.79 17.3292C160.86 17.7095 161.263 18.3378 161.263 19.0653C161.263 19.9415 160.579 20.8343 159.439 20.8343C158.545 20.8343 157.282 20.1565 155.493 20.1565C154.336 20.1565 153.582 20.5367 153.582 21.4461C153.582 23.8931 161.982 22.9341 161.982 28.5886C162 32.0606 158.562 33.995 154.388 33.995Z" fill="white"/>
<path d="M181.887 19.2641V31.3336C181.887 32.7224 180.8 33.7474 179.344 33.7474C177.976 33.7474 176.906 32.8381 176.783 31.5816C175.065 33.1357 173.258 33.8466 171.277 33.8466C167.471 33.8466 165.279 31.5154 165.279 27.4482V19.2641C165.279 17.8091 166.437 16.751 167.98 16.751C169.523 16.751 170.645 17.8091 170.645 19.2641V27.5308C170.645 29.2503 171.575 30.1431 173.486 30.1431C174.714 30.1431 175.679 29.8125 176.503 29.1181V19.2641C176.503 17.8091 177.66 16.751 179.204 16.751C180.729 16.751 181.887 17.8091 181.887 19.2641Z" fill="white"/>
<path d="M199.266 18.9494C199.266 20.1398 198.477 21.2476 196.723 21.2476C194.97 21.2476 193.374 21.8924 191.971 22.8678V31.2338C191.971 32.6888 190.848 33.78 189.305 33.78C187.762 33.78 186.604 32.6888 186.604 31.2338V19.1643C186.604 17.8086 187.692 16.767 189.165 16.767C190.638 16.767 191.725 17.7921 191.725 19.1643V19.9745C193.023 18.0731 194.601 16.6843 196.723 16.6843C198.442 16.6512 199.266 17.7755 199.266 18.9494Z" fill="white"/>
<path d="M205.176 31.1846L200.967 19.8426C200.283 18.0074 201.511 16.7343 203.265 16.7343C204.334 16.7343 205.316 17.2138 205.737 18.5034L209.087 28.8038H209.157L212.647 18.4042C212.998 17.2138 213.875 16.7178 215.015 16.7178C216.628 16.7178 217.75 17.9743 217.137 19.6607L212.857 31.1515C212.244 32.8049 210.841 33.7308 209.017 33.7308C207.175 33.7638 205.808 32.8214 205.176 31.1846Z" fill="white"/>
<path d="M234.463 31.4322C234.463 32.2423 234.06 32.8871 233.06 33.2013C231.587 33.7138 229.904 33.9784 228.062 33.9784C222.819 33.9784 219.118 31.0354 219.118 25.2652C219.118 20.3547 222.03 16.6182 227.343 16.6182C232.412 16.6182 234.604 19.9083 234.604 24.0417C234.604 25.662 233.639 26.4556 231.728 26.4556H224.537C224.502 28.9687 226.011 30.3906 228.676 30.3906C230.623 30.3906 231.973 29.6466 232.78 29.6466C233.955 29.6631 234.463 30.5063 234.463 31.4322ZM224.572 23.9094H229.886C229.816 21.8428 229.202 20.1894 227.484 20.1894C225.432 20.2059 224.643 22.0412 224.572 23.9094Z" fill="white"/>
<path d="M235.796 37.8312C235.796 36.7069 236.586 35.7645 237.638 35.7645C238.497 35.7645 239.321 36.277 240.303 36.277C241.286 36.277 241.812 35.6653 242.215 34.9213L242.829 33.83L237.147 19.9749C237.042 19.6443 236.971 19.3301 236.971 18.9995C236.971 17.776 237.936 16.7344 239.532 16.7344C240.426 16.7344 241.478 17.1146 241.934 18.4539L245.6 29.2337H245.67L249.3 18.3547C249.703 17.0981 250.738 16.7344 251.738 16.7344C252.965 16.7344 254 17.3792 254 18.7349C254 19.0656 253.965 19.4789 253.754 19.9253L247.652 35.0701C246.424 38.1453 244.021 40.3608 240.321 40.3608C238.234 40.3773 235.796 39.6994 235.796 37.8312Z" fill="white"/>
<path d="M47.5378 18.8729C45.6297 10.1331 37.977 3.73949 29.1213 1.37366C17.9636 -1.59828 0.293802 -0.698875 0.00345256 13.7502C-0.20394 24.2694 8.9628 36.4895 19.208 40.4391C25.409 42.8245 32.8129 42.668 38.5369 39.3833C45.6712 35.2968 49.2384 26.6156 47.5378 18.8729ZM25.1394 20.9455L22.7544 18.697C22.3811 18.345 21.7796 18.3646 21.4478 18.7556C18.8139 21.7667 17.9636 26.2833 17.6733 28.8837C17.5903 29.6658 16.5326 29.9004 16.0764 29.2747C12.5922 24.5431 13.0899 17.9931 17.5488 13.7894C19.8094 11.6582 22.7129 10.485 25.6786 10.2699C26.1971 10.2308 26.6326 10.6219 26.6326 11.0911V20.3394C26.6534 21.0823 25.6994 21.4538 25.1394 20.9455ZM35.7371 30.9171C33.4766 33.0483 30.5731 34.2215 27.6074 34.4365C27.0889 34.4757 26.6534 34.0846 26.6534 33.6153V24.3867C26.6534 23.6437 27.6074 23.2722 28.1673 23.8001L30.5523 26.0486C30.9256 26.4006 31.5271 26.381 31.8589 25.99C34.4928 22.9789 35.3431 18.4623 35.6334 15.8619C35.7164 15.0798 36.7741 14.8452 37.2304 15.4708C40.6938 20.1829 40.1961 26.7134 35.7371 30.9171Z" fill="white"/>
</svg>
