<svg width="180" height="30" viewBox="0 0 180 30" fill="none" xmlns="http://www.w3.org/2000/svg">
<path d="M36.5088 23.6999C35.7494 23.4038 35.2731 22.876 35.2731 22.1423C35.2731 21.2927 35.9296 20.4817 37.0109 20.4817C37.9892 20.4817 38.6972 21.2412 40.6024 21.2412C41.9411 21.2412 42.7907 20.6877 42.7907 19.5291C42.7907 16.5169 35.5305 17.3923 35.5305 11.8055C35.5305 8.40716 38.2209 6.74658 41.6451 6.74658C42.8551 6.74658 44.078 6.97829 45.0692 7.32585C46.099 7.67341 46.4723 8.22694 46.4723 8.90919C46.4723 9.70729 45.8673 10.5183 44.889 10.5183C44.1295 10.5183 43.2541 9.88751 41.6708 9.88751C40.4608 9.88751 39.6627 10.441 39.6627 11.4708C39.6627 14.4573 46.9229 13.6335 46.9229 19.1172C46.9229 22.6829 44.0522 24.4722 40.5895 24.4722C39.1735 24.4851 37.5644 24.2019 36.5088 23.6999Z" fill="#C4C4C4"/>
<path d="M61.7521 15.9633V22.3481C61.7521 23.4809 60.9025 24.3305 59.7954 24.3305C58.6627 24.3305 57.8131 23.4809 57.8131 22.3481V16.0663C57.8131 14.483 57.1308 13.9037 55.9079 13.9037C55.0326 13.9037 54.1959 14.1611 53.5651 14.6374V22.361C53.5651 23.4938 52.7155 24.3434 51.5827 24.3434C50.4757 24.3434 49.6261 23.4938 49.6261 22.361V7.63473C49.6261 6.50194 50.4757 5.65234 51.5827 5.65234C52.7155 5.65234 53.5651 6.50194 53.5651 7.63473V12.5907C54.9682 11.4321 56.0495 10.9816 57.6843 10.9816C60.349 10.9816 61.7521 12.6679 61.7521 15.9633Z" fill="#C4C4C4"/>
<path d="M75.6544 16.4136V22.4509C75.6544 23.5322 74.8563 24.3303 73.775 24.3303C72.874 24.3303 72.1402 23.7252 71.96 22.8757C71.1748 24.1114 69.746 24.459 68.4458 24.459C65.807 24.459 64.2751 23.0044 64.2751 20.417C64.2751 17.8038 66.206 16.4007 69.6301 16.4007H71.7412V15.7957C71.7412 14.4183 70.8144 13.9292 69.5014 13.9292C68.2141 13.9292 67.0814 14.3025 66.6051 14.3025C65.7812 14.3025 65.1762 13.7232 65.1762 12.9509C65.1762 12.3973 65.4337 11.8181 66.309 11.522C67.313 11.2259 68.9221 10.9942 70.2866 10.9942C73.4661 10.9813 75.6544 12.5389 75.6544 16.4136ZM71.7412 21.0864V18.3702H70.3896C68.8835 18.3702 68.227 19.001 68.227 20.1595C68.227 21.1636 68.7033 21.8716 69.8618 21.8716C70.5827 21.8716 71.2134 21.5884 71.7412 21.0864Z" fill="#C4C4C4"/>
<path d="M88.2568 12.7968C88.2568 13.7236 87.6776 14.5861 86.3903 14.5861C85.103 14.5861 83.9316 15.0881 82.9018 15.8476V22.3611C82.9018 23.4939 82.078 24.3435 80.9452 24.3435C79.8124 24.3435 78.9628 23.4939 78.9628 22.3611V12.9642C78.9628 11.9086 79.7609 11.0976 80.8422 11.0976C81.9235 11.0976 82.7216 11.8957 82.7216 12.9642V13.5949C83.6742 12.1146 84.8327 11.0333 86.3903 11.0333C87.6518 11.0075 88.2568 11.8829 88.2568 12.7968Z" fill="#C4C4C4"/>
<path d="M100.267 22.5154C100.267 23.1462 99.9709 23.6482 99.2372 23.8928C98.1559 24.2918 96.9201 24.4978 95.5685 24.4978C91.7196 24.4978 89.0034 22.2065 89.0034 17.7139C89.0034 13.8907 91.1403 10.9814 95.0407 10.9814C98.7609 10.9814 100.37 13.5431 100.37 16.7613C100.37 18.0228 99.662 18.6407 98.2589 18.6407H92.9811C92.9553 20.5974 94.0624 21.7044 96.019 21.7044C97.4479 21.7044 98.4391 21.1252 99.0312 21.1252C99.8937 21.138 100.267 21.7945 100.267 22.5154ZM93.0068 16.6583H96.9072C96.8557 15.0492 96.4052 13.762 95.1437 13.762C93.6376 13.7748 93.0583 15.2037 93.0068 16.6583Z" fill="#C4C4C4"/>
<path d="M106.884 24.5107C105.571 24.5107 104.373 24.3048 103.292 23.88C102.494 23.5324 102.237 23.0046 102.237 22.4769C102.237 21.7431 102.764 21.1381 103.55 21.1381C104.399 21.1381 105.416 21.7946 107.141 21.7946C107.991 21.7946 108.596 21.4728 108.596 20.6103C108.596 18.7438 102.481 19.529 102.481 15.0493C102.481 12.3332 104.875 11.0073 107.707 11.0073C108.892 11.0073 109.973 11.2133 110.848 11.5351C111.634 11.8312 111.93 12.3203 111.93 12.8867C111.93 13.569 111.428 14.2641 110.591 14.2641C109.934 14.2641 109.008 13.7363 107.695 13.7363C106.845 13.7363 106.291 14.0324 106.291 14.7404C106.291 16.6455 112.457 15.8989 112.457 20.3014C112.47 23.0046 109.947 24.5107 106.884 24.5107Z" fill="#C4C4C4"/>
<path d="M127.068 13.0411V22.438C127.068 23.5193 126.27 24.3174 125.201 24.3174C124.197 24.3174 123.412 23.6094 123.322 22.6311C122.06 23.8411 120.734 24.3947 119.28 24.3947C116.487 24.3947 114.877 22.5796 114.877 19.413V13.0411C114.877 11.9083 115.727 11.0845 116.86 11.0845C117.993 11.0845 118.816 11.9083 118.816 13.0411V19.4774C118.816 20.8161 119.499 21.5112 120.902 21.5112C121.803 21.5112 122.511 21.2538 123.116 20.7131V13.0411C123.116 11.9083 123.965 11.0845 125.098 11.0845C126.218 11.0845 127.068 11.9083 127.068 13.0411Z" fill="#C4C4C4"/>
<path d="M139.825 12.7968C139.825 13.7236 139.245 14.5861 137.958 14.5861C136.671 14.5861 135.499 15.0881 134.47 15.8476V22.3611C134.47 23.4939 133.646 24.3435 132.513 24.3435C131.38 24.3435 130.531 23.4939 130.531 22.3611V12.9642C130.531 11.9086 131.329 11.0976 132.41 11.0976C133.491 11.0976 134.289 11.8957 134.289 12.9642V13.5949C135.242 12.1146 136.4 11.0333 137.958 11.0333C139.22 11.0075 139.825 11.8829 139.825 12.7968Z" fill="#C4C4C4"/>
<path d="M144.163 22.3226L141.073 13.492C140.571 12.0631 141.472 11.072 142.76 11.072C143.545 11.072 144.266 11.4453 144.575 12.4493L147.033 20.469H147.085L149.646 12.3721C149.904 11.4453 150.547 11.0591 151.384 11.0591C152.568 11.0591 153.392 12.0374 152.942 13.3504L149.801 22.2969C149.35 23.5841 148.32 24.305 146.982 24.305C145.63 24.3308 144.626 23.597 144.163 22.3226Z" fill="#C4C4C4"/>
<path d="M165.66 22.5154C165.66 23.1462 165.364 23.6482 164.63 23.8928C163.549 24.2918 162.313 24.4978 160.961 24.4978C157.112 24.4978 154.396 22.2065 154.396 17.7139C154.396 13.8907 156.533 10.9814 160.434 10.9814C164.154 10.9814 165.763 13.5431 165.763 16.7613C165.763 18.0228 165.055 18.6407 163.652 18.6407H158.374C158.348 20.5974 159.455 21.7044 161.412 21.7044C162.841 21.7044 163.832 21.1252 164.424 21.1252C165.287 21.138 165.66 21.7945 165.66 22.5154ZM158.4 16.6583H162.3C162.249 15.0492 161.798 13.762 160.537 13.762C159.03 13.7748 158.451 15.2037 158.4 16.6583Z" fill="#C4C4C4"/>
<path d="M166.638 27.4972C166.638 26.6219 167.217 25.8881 167.99 25.8881C168.621 25.8881 169.226 26.2872 169.946 26.2872C170.667 26.2872 171.053 25.8109 171.35 25.2316L171.8 24.382L167.629 13.5948C167.552 13.3374 167.501 13.0928 167.501 12.8353C167.501 11.8828 168.209 11.0718 169.38 11.0718C170.037 11.0718 170.809 11.3678 171.144 12.4105L173.834 20.8034H173.885L176.55 12.3333C176.846 11.355 177.606 11.0718 178.339 11.0718C179.241 11.0718 180 11.5738 180 12.6294C180 12.8868 179.974 13.2086 179.82 13.5562L175.34 25.3475C174.439 27.7418 172.675 29.4667 169.959 29.4667C168.427 29.4796 166.638 28.9518 166.638 27.4972Z" fill="#C4C4C4"/>
<path d="M29.5062 12.8609C28.3219 7.10683 23.5719 2.8975 18.0753 1.33992C11.1498 -0.616707 0.182359 -0.0245692 0.00214296 9.48825C-0.126583 16.4137 5.56311 24.459 11.9222 27.0593C15.7711 28.6298 20.3666 28.5268 23.9194 26.3642C28.3476 23.6738 30.5617 17.9584 29.5062 12.8609ZM15.6037 14.2254L14.1234 12.745C13.8917 12.5133 13.5184 12.5262 13.3124 12.7836C11.6776 14.766 11.1498 17.7396 10.9696 19.4516C10.9181 19.9665 10.2616 20.121 9.97841 19.7091C7.81581 16.5939 8.12476 12.2816 10.8924 9.514C12.2955 8.11089 14.0976 7.33854 15.9384 7.19694C16.2602 7.17119 16.5306 7.42864 16.5306 7.73758V13.8263C16.5434 14.3155 15.9513 14.56 15.6037 14.2254ZM22.1816 20.7904C20.7785 22.1935 18.9764 22.9658 17.1356 23.1074C16.8138 23.1332 16.5434 22.8757 16.5434 22.5668V16.4909C16.5434 16.0018 17.1356 15.7572 17.4831 16.1047L18.9635 17.5851C19.1952 17.8168 19.5685 17.8039 19.7745 17.5465C21.4093 15.5641 21.9371 12.5905 22.1173 10.8785C22.1688 10.3636 22.8253 10.2091 23.1085 10.621C25.2582 13.7233 24.9493 18.0228 22.1816 20.7904Z" fill="#C4C4C4"/>
</svg>
