<svg width="327" height="55" viewBox="0 0 327 55" fill="none" xmlns="http://www.w3.org/2000/svg">
<path d="M75.2056 42.355C73.8757 41.8662 73.0417 40.995 73.0417 39.7837C73.0417 38.3812 74.1913 37.0424 76.0847 37.0424C77.7978 37.0424 79.0375 38.2962 82.3735 38.2962C84.7177 38.2962 86.2054 37.3824 86.2054 35.4699C86.2054 30.4972 73.4926 31.9423 73.4926 22.7196C73.4926 17.1095 78.2035 14.3682 84.1993 14.3682C86.3181 14.3682 88.4594 14.7507 90.1951 15.3244C91.9983 15.8982 92.652 16.812 92.652 17.9382C92.652 19.2558 91.5926 20.5945 89.8795 20.5945C88.5496 20.5945 87.0169 19.5533 84.2444 19.5533C82.1256 19.5533 80.7281 20.467 80.7281 22.1671C80.7281 27.0972 93.4409 25.7372 93.4409 34.7898C93.4409 40.6762 88.4144 43.63 82.351 43.63C79.8715 43.6513 77.054 43.1838 75.2056 42.355Z" fill="#418AFF"/>
<path d="M119.407 29.5831V40.1234C119.407 41.9934 117.92 43.3959 115.981 43.3959C113.998 43.3959 112.51 41.9934 112.51 40.1234V29.7531C112.51 27.1393 111.315 26.1831 109.174 26.1831C107.641 26.1831 106.176 26.6081 105.072 27.3943V40.1446C105.072 42.0146 103.584 43.4172 101.6 43.4172C99.662 43.4172 98.1743 42.0146 98.1743 40.1446V15.8341C98.1743 13.9641 99.662 12.5615 101.6 12.5615C103.584 12.5615 105.072 13.9641 105.072 15.8341V24.0155C107.529 22.103 109.422 21.3592 112.285 21.3592C116.951 21.3592 119.407 24.143 119.407 29.5831Z" fill="#418AFF"/>
<path d="M143.751 30.3265V40.2929C143.751 42.0779 142.354 43.3955 140.461 43.3955C138.883 43.3955 137.598 42.3967 137.282 40.9942C135.907 43.0342 133.405 43.608 131.129 43.608C126.508 43.608 123.826 41.2067 123.826 36.9353C123.826 32.6215 127.207 30.3052 133.203 30.3052H136.899V29.3064C136.899 27.0326 135.276 26.2251 132.977 26.2251C130.723 26.2251 128.74 26.8414 127.906 26.8414C126.463 26.8414 125.404 25.8851 125.404 24.6101C125.404 23.6963 125.854 22.74 127.387 22.2513C129.145 21.7625 131.963 21.38 134.352 21.38C139.92 21.3588 143.751 23.9301 143.751 30.3265ZM136.899 38.0404V33.5565H134.532C131.895 33.5565 130.746 34.5978 130.746 36.5103C130.746 38.1679 131.58 39.3366 133.608 39.3366C134.871 39.3366 135.975 38.8691 136.899 38.0404Z" fill="#418AFF"/>
<path d="M165.818 24.3556C165.818 25.8856 164.804 27.3094 162.55 27.3094C160.296 27.3094 158.245 28.1382 156.441 29.3919V40.1447C156.441 42.0147 154.999 43.4172 153.015 43.4172C151.032 43.4172 149.544 42.0147 149.544 40.1447V24.6318C149.544 22.8893 150.941 21.5505 152.835 21.5505C154.728 21.5505 156.126 22.8681 156.126 24.6318V25.6731C157.794 23.2293 159.822 21.4443 162.55 21.4443C164.759 21.4018 165.818 22.8468 165.818 24.3556Z" fill="#418AFF"/>
<path d="M186.849 40.3998C186.849 41.441 186.33 42.2698 185.045 42.6736C183.152 43.3323 180.988 43.6723 178.621 43.6723C171.882 43.6723 167.126 39.8898 167.126 32.4734C167.126 26.162 170.867 21.3594 177.697 21.3594C184.211 21.3594 187.029 25.5882 187.029 30.9008C187.029 32.9834 185.789 34.0034 183.332 34.0034H174.091C174.046 37.2335 175.984 39.061 179.41 39.061C181.912 39.061 183.648 38.1047 184.685 38.1047C186.195 38.126 186.849 39.2097 186.849 40.3998ZM174.136 30.7308H180.966C180.875 28.0745 180.086 25.9495 177.878 25.9495C175.24 25.9707 174.226 28.3295 174.136 30.7308Z" fill="#418AFF"/>
<path d="M198.435 43.6931C196.136 43.6931 194.039 43.3531 192.146 42.6518C190.748 42.078 190.298 41.2068 190.298 40.3355C190.298 39.1242 191.222 38.1255 192.597 38.1255C194.084 38.1255 195.865 39.2092 198.886 39.2092C200.373 39.2092 201.433 38.678 201.433 37.2542C201.433 34.1729 190.726 35.4692 190.726 28.074C190.726 23.5902 194.918 21.4014 199.877 21.4014C201.951 21.4014 203.844 21.7414 205.377 22.2726C206.752 22.7614 207.271 23.5689 207.271 24.5039C207.271 25.6302 206.392 26.7777 204.926 26.7777C203.777 26.7777 202.154 25.9065 199.855 25.9065C198.367 25.9065 197.398 26.3952 197.398 27.564C197.398 30.7091 208.195 29.4765 208.195 36.7442C208.217 41.2068 203.799 43.6931 198.435 43.6931Z" fill="#418AFF"/>
<path d="M233.778 24.7594V40.2722C233.778 42.0572 232.38 43.3748 230.51 43.3748C228.751 43.3748 227.376 42.206 227.219 40.591C225.01 42.5885 222.688 43.5023 220.141 43.5023C215.25 43.5023 212.432 40.5059 212.432 35.2783V24.7594C212.432 22.8893 213.92 21.5293 215.903 21.5293C217.887 21.5293 219.33 22.8893 219.33 24.7594V35.3846C219.33 37.5946 220.524 38.7422 222.981 38.7422C224.559 38.7422 225.799 38.3172 226.858 37.4246V24.7594C226.858 22.8893 228.346 21.5293 230.329 21.5293C232.29 21.5293 233.778 22.8893 233.778 24.7594Z" fill="#418AFF"/>
<path d="M256.116 24.3556C256.116 25.8856 255.101 27.3094 252.847 27.3094C250.593 27.3094 248.542 28.1382 246.739 29.3919V40.1447C246.739 42.0147 245.296 43.4172 243.313 43.4172C241.329 43.4172 239.842 42.0147 239.842 40.1447V24.6318C239.842 22.8893 241.239 21.5505 243.132 21.5505C245.026 21.5505 246.423 22.8681 246.423 24.6318V25.6731C248.091 23.2293 250.12 21.4443 252.847 21.4443C255.056 21.4018 256.116 22.8468 256.116 24.3556Z" fill="#418AFF"/>
<path d="M263.712 40.0805L258.302 25.5027C257.423 23.1439 259.001 21.5076 261.255 21.5076C262.63 21.5076 263.892 22.1238 264.433 23.7814L268.738 37.0204H268.828L273.314 23.6539C273.765 22.1238 274.892 21.4863 276.357 21.4863C278.431 21.4863 279.873 23.1014 279.084 25.2689L273.584 40.038C272.795 42.163 270.992 43.353 268.648 43.353C266.281 43.3955 264.523 42.1843 263.712 40.0805Z" fill="#418AFF"/>
<path d="M301.355 40.3998C301.355 41.441 300.836 42.2698 299.551 42.6736C297.658 43.3323 295.494 43.6723 293.127 43.6723C286.388 43.6723 281.632 39.8898 281.632 32.4734C281.632 26.162 285.373 21.3594 292.203 21.3594C298.717 21.3594 301.535 25.5882 301.535 30.9008C301.535 32.9834 300.295 34.0034 297.838 34.0034H288.597C288.552 37.2335 290.49 39.061 293.916 39.061C296.418 39.061 298.154 38.1047 299.191 38.1047C300.701 38.126 301.355 39.2097 301.355 40.3998ZM288.642 30.7308H295.471C295.381 28.0745 294.592 25.9495 292.383 25.9495C289.746 25.9707 288.732 28.3295 288.642 30.7308Z" fill="#418AFF"/>
<path d="M303.068 48.6234C303.068 47.1783 304.082 45.9671 305.434 45.9671C306.539 45.9671 307.598 46.6258 308.861 46.6258C310.123 46.6258 310.799 45.8396 311.317 44.8833L312.106 43.4808L304.803 25.6729C304.668 25.2479 304.578 24.8441 304.578 24.4191C304.578 22.8466 305.818 21.5078 307.869 21.5078C309.018 21.5078 310.371 21.9966 310.957 23.7179L315.668 37.5731H315.758L320.424 23.5904C320.942 21.9753 322.272 21.5078 323.557 21.5078C325.135 21.5078 326.465 22.3366 326.465 24.0791C326.465 24.5041 326.42 25.0354 326.149 25.6091L318.305 45.0746C316.727 49.0271 313.639 51.8747 308.883 51.8747C306.201 51.8959 303.068 51.0247 303.068 48.6234Z" fill="#418AFF"/>
<path d="M61.1 24.2573C58.6476 13.024 48.8116 4.80634 37.4295 1.76556C23.0885 -2.05426 0.377622 -0.89826 0.00443755 17.6731C-0.262123 31.1933 11.5198 46.8998 24.6879 51.9761C32.658 55.042 42.1742 54.841 49.5313 50.6191C58.701 45.3668 63.2858 34.2089 61.1 24.2573ZM32.3115 26.9211L29.2461 24.0311C28.7663 23.5787 27.9932 23.6039 27.5667 24.1065C24.1814 27.9766 23.0885 33.7817 22.7154 37.124C22.6087 38.1292 21.2493 38.4308 20.6628 37.6266C16.1846 31.5451 16.8244 23.1264 22.5554 17.7234C25.4609 14.9842 29.1928 13.4763 33.0046 13.1999C33.671 13.1496 34.2307 13.6522 34.2307 14.2554V26.142C34.2574 27.097 33.0312 27.5745 32.3115 26.9211ZM45.9327 39.7376C43.0272 42.4768 39.2954 43.9846 35.4836 44.2611C34.8172 44.3113 34.2574 43.8087 34.2574 43.2056V31.344C34.2574 30.3891 35.4836 29.9116 36.2033 30.5901L39.2687 33.4801C39.7485 33.9325 40.5216 33.9073 40.9481 33.4047C44.3334 29.5347 45.4263 23.7295 45.7995 20.3872C45.9061 19.382 47.2655 19.0804 47.852 19.8846C52.3035 25.941 51.6638 34.3346 45.9327 39.7376Z" fill="#418AFF"/>
</svg>
