<svg width="408" height="367" viewBox="0 0 408 367" fill="none" xmlns="http://www.w3.org/2000/svg">
<g filter="url(#filter0_d)">
<path d="M4 0H404V349C404 354.523 399.523 359 394 359H14C8.47714 359 4 354.523 4 349V0Z" fill="white"/>
</g>
<path d="M36.28 40.74V43.89H45.28C44.65 47.76 41.23 50.97 35.08 52.65L36.73 55.8C44.95 53.43 49.57 48.24 49.57 40.74H36.28ZM43.15 56.46H39.19V65.82H57.97V62.67H43.15V56.46ZM57.01 46.38V38.67H53.05V58.44H57.01V49.62H60.7V46.38H57.01ZM82.0277 59.04H85.9877V38.67H82.0277V43.5H78.6677V46.68H82.0277V49.08H78.6677V52.26H82.0277V59.04ZM69.5777 43.8H72.1577V52.32C71.2877 52.38 70.4177 52.41 69.5777 52.41V43.8ZM78.4877 51.87C77.6777 51.96 76.8377 52.05 75.9677 52.11V43.8H78.1577V40.65H63.5777V43.8H65.7677V52.5C64.7477 52.5 63.7877 52.5 62.8877 52.5L63.3077 55.71C67.6577 55.71 73.5977 55.62 78.7277 54.75L78.4877 51.87ZM71.7377 62.67V57.51H67.7777V65.82H86.6177V62.67H71.7377ZM98.4653 57.42C96.6053 57.42 95.2253 56.16 95.2253 54.06C95.2253 51.96 96.6053 50.67 98.4653 50.67C100.325 50.67 101.675 51.96 101.675 54.03C101.675 56.16 100.325 57.42 98.4653 57.42ZM98.4653 47.46C94.4453 47.46 91.4453 50.19 91.4453 54.03C91.4453 57.93 94.4453 60.66 98.4653 60.66C102.455 60.66 105.425 57.93 105.425 54.03C105.425 50.19 102.455 47.46 98.4653 47.46ZM100.415 39.15H96.4553V42.75H90.3353V45.9H106.415V42.75H100.415V39.15ZM116.135 49.47H112.175V38.67H108.215V66.3H112.175V52.74H116.135V49.47ZM132.273 49.23H129.183C129.843 46.98 130.083 44.55 130.083 41.94H119.253V45.09H126.153C125.673 50.49 123.243 54.48 117.723 57.78L119.973 60.57C123.873 58.29 126.393 55.56 127.953 52.41H132.273V65.07H135.963V39.27H132.273V49.23ZM138.093 38.64V66.27H141.843V38.64H138.093ZM171.618 52.71H175.578V38.67H171.618V42.72H166.578V45.87H171.618V52.71ZM168.978 49.35C164.658 48.03 162.768 44.82 162.768 41.55V39.57H158.778V41.55C158.778 45.06 156.858 48.45 152.268 49.83L154.308 52.92C157.458 51.93 159.618 49.89 160.848 47.31C162.018 49.62 164.058 51.45 166.968 52.38L168.978 49.35ZM161.298 62.91V61.29H175.578V53.88H157.368V56.91H171.678V58.44H157.398V65.97H176.358V62.91H161.298ZM197.985 47.01H187.035V42.93H197.985V47.01ZM201.885 39.84H183.135V50.13H201.885V39.84ZM186.915 57.81H182.955V65.82H202.305V62.67H186.915V57.81ZM180.045 52.32V55.44H190.935V60.15H194.895V55.44H205.065V52.32H180.045ZM210.193 54.99C214.993 54.12 218.473 51.72 220.183 48.42C221.923 51.66 225.433 53.97 230.293 54.84L231.793 51.72C225.853 50.85 222.643 47.52 222.283 43.92H230.563V40.77H209.743V43.92H218.023C217.663 47.52 214.453 50.97 208.663 51.87L210.193 54.99ZM222.163 59.88V53.79H218.203V59.88H207.673V63.09H232.693V59.88H222.163ZM245.44 40.8H241.45V44.82C241.45 49.95 239.35 55.23 234.7 57.42L237.07 60.63C240.19 59.1 242.26 56.19 243.46 52.68C244.6 55.98 246.55 58.65 249.43 60.12L251.83 57C247.39 54.81 245.44 49.8 245.44 44.82V40.8ZM260.92 49.29H256.9V38.67H252.94V66.3H256.9V52.59H260.92V49.29ZM280.928 43.17H265.988V49.77H285.308V47.1H269.888V45.66H284.828V39.15H265.928V41.82H280.928V43.17ZM269.648 61.89H284.918V55.32H265.688V57.99H280.988V59.4H265.718V66.06H285.668V63.39H269.648V61.89ZM262.868 51.09V53.94H287.888V51.09H262.868ZM57.46 89.26H42.28V85.57H57.31V82.42H38.35V92.38H57.46V89.26ZM47.71 106.3C44.02 106.3 42.13 105.67 42.13 104.23C42.13 102.79 44.02 102.13 47.71 102.13C51.4 102.13 53.29 102.79 53.29 104.23C53.29 105.67 51.4 106.3 47.71 106.3ZM47.71 99.13C41.74 99.13 38.14 100.96 38.14 104.23C38.14 107.47 41.74 109.3 47.71 109.3C53.68 109.3 57.31 107.47 57.31 104.23C57.31 100.96 53.68 99.13 47.71 99.13ZM35.32 94.3V97.54H60.31V94.3H35.32ZM65.6477 104.29H81.0677V109.21H85.0277V101.17H65.6477V104.29ZM77.3777 96.46V94.48H85.4177V91.48H69.9077V89.68H84.8477V82.21H65.9477V85.21H80.9477V86.89H66.0077V94.48H73.4177V96.46H62.8877V99.61H87.9077V96.46H77.3777ZM98.4653 100.42C96.6053 100.42 95.2253 99.16 95.2253 97.06C95.2253 94.96 96.6053 93.67 98.4653 93.67C100.325 93.67 101.675 94.96 101.675 97.03C101.675 99.16 100.325 100.42 98.4653 100.42ZM98.4653 90.46C94.4453 90.46 91.4453 93.19 91.4453 97.03C91.4453 100.93 94.4453 103.66 98.4653 103.66C102.455 103.66 105.425 100.93 105.425 97.03C105.425 93.19 102.455 90.46 98.4653 90.46ZM100.415 82.15H96.4553V85.75H90.3353V88.9H106.415V85.75H100.415V82.15ZM116.135 92.47H112.175V81.67H108.215V109.3H112.175V95.74H116.135V92.47ZM122.943 94.36H131.433V84.01H118.983V87.16H127.503V91.27H119.043V102.97H121.323C125.913 102.97 129.573 102.82 133.683 102.16L133.323 98.95C129.843 99.52 126.693 99.7 122.943 99.73V94.36ZM137.223 81.64V91.6H132.903V94.81H137.223V109.36H141.213V81.64H137.223ZM153.738 84.49V87.7H162.768C162.048 93.82 158.628 98.2 152.208 101.5L154.428 104.53C163.608 99.88 166.758 92.77 166.758 84.49H153.738ZM177.978 92.2H174.108V81.64H170.148V109.24H174.108V95.47H177.978V92.2ZM181.605 84.52V87.67H190.815C190.245 93.79 187.185 98.11 180.135 101.5L182.205 104.62C192.015 99.88 194.865 92.98 194.865 84.52H181.605ZM199.095 81.64V109.27H203.085V81.64H199.095Z" fill="#2D59B8"/>
<path d="M329.125 277.214C329.125 275.676 327.878 274.429 326.339 274.429H303.786C302.247 274.429 301 275.676 301 277.214V277.214C301 278.753 302.247 280 303.786 280H326.339C327.878 280 329.125 278.753 329.125 277.214V277.214ZM346 254.929C346 253.39 344.753 252.143 343.214 252.143H303.786C302.247 252.143 301 253.39 301 254.929V254.929C301 256.467 302.247 257.714 303.786 257.714H343.214C344.753 257.714 346 256.467 346 254.929V254.929ZM301 266.071C301 267.61 302.247 268.857 303.786 268.857H343.214C344.753 268.857 346 267.61 346 266.071V266.071C346 264.533 344.753 263.286 343.214 263.286H303.786C302.247 263.286 301 264.533 301 266.071V266.071ZM303.786 241C302.247 241 301 242.247 301 243.786V243.786C301 245.324 302.247 246.571 303.786 246.571H343.214C344.753 246.571 346 245.324 346 243.786V243.786C346 242.247 344.753 241 343.214 241H303.786Z" fill="#2D59B8"/>
<path d="M363.424 300.741L350.573 294.617C350.092 294.427 349.582 294.319 349.045 294.319V294.319C347.856 294.319 346.893 293.356 346.893 292.168V278.059C346.893 275.81 344.997 273.995 342.647 273.995C340.298 273.995 338.401 275.81 338.401 278.059V301.052C338.401 304.212 335.504 306.577 332.407 305.953C328.262 305.117 328.286 305.132 328.013 305.132C327.135 305.132 326.342 305.484 325.776 306.026V306.026C324.555 307.21 324.561 309.171 325.79 310.348L337.524 321.581C338.288 322.312 339.364 322.773 340.524 322.773H359.745C361.868 322.773 363.509 321.283 363.821 319.304L365.944 305.023C365.972 304.833 366 304.644 366 304.481C366 302.801 364.925 301.338 363.424 300.741Z" fill="#2D59B8"/>
<defs>
<filter id="filter0_d" x="0" y="0" width="408" height="367" filterUnits="userSpaceOnUse" color-interpolation-filters="sRGB">
<feFlood flood-opacity="0" result="BackgroundImageFix"/>
<feColorMatrix in="SourceAlpha" type="matrix" values="0 0 0 0 0 0 0 0 0 0 0 0 0 0 0 0 0 0 127 0"/>
<feOffset dy="4"/>
<feGaussianBlur stdDeviation="2"/>
<feColorMatrix type="matrix" values="0 0 0 0 0 0 0 0 0 0 0 0 0 0 0 0 0 0 0.25 0"/>
<feBlend mode="normal" in2="BackgroundImageFix" result="effect1_dropShadow"/>
<feBlend mode="normal" in="SourceGraphic" in2="effect1_dropShadow" result="shape"/>
</filter>
</defs>
</svg>
