<svg width="408" height="367" viewBox="0 0 408 367" fill="none" xmlns="http://www.w3.org/2000/svg">
<g filter="url(#filter0_d)">
<path d="M4 0H404V349C404 354.523 399.523 359 394 359H14C8.47714 359 4 354.523 4 349V0Z" fill="white"/>
</g>
<path d="M51.94 51.27C47.68 49.83 45.76 46.5 45.7 43.35H51.07V40.2H36.22V43.35H41.65C41.59 46.77 39.58 50.28 35.14 51.78L37.15 54.9C40.36 53.85 42.52 51.63 43.75 48.93C44.92 51.39 46.99 53.37 50.02 54.36L51.94 51.27ZM39.55 59.49H54.43V66.33H58.39V56.34H39.55V59.49ZM54.43 38.7V45.27H50.35V48.45H54.43V55.11H58.39V38.7H54.43ZM79.5677 49.68C75.9677 50.28 72.7577 50.4 68.1977 50.43V48.15H76.9877V39.93H64.2677V43.08H73.0877V45.21H64.2977V53.61H66.7277C72.2177 53.61 75.9077 53.52 80.0177 52.83L79.5677 49.68ZM81.9077 62.82H71.3777V60.6H81.9077V62.82ZM81.9077 57.57H71.3777V55.23H67.4477V65.97H85.8377V55.23H81.9077V57.57ZM81.8477 38.67V54.09H85.8377V38.67H81.8477ZM106.775 41.58H100.595V38.64H96.6053V41.58H90.4853V44.67H106.745L106.775 41.58ZM95.6153 50.97C95.6153 49.47 96.8453 48.66 98.6153 48.66C100.355 48.66 101.615 49.47 101.615 50.97C101.615 52.5 100.355 53.31 98.6153 53.31C96.8453 53.31 95.6153 52.5 95.6153 50.97ZM105.395 50.97C105.395 47.85 102.575 45.66 98.6153 45.66C94.6553 45.66 91.8353 47.85 91.8353 50.97C91.8353 54.15 94.6553 56.31 98.6153 56.31C102.575 56.31 105.395 54.15 105.395 50.97ZM98.3753 57.81H94.4153V65.82H113.225V62.67H98.3753V57.81ZM112.235 47.1V38.67H108.275V59.34H112.235V50.37H115.895V47.1H112.235ZM134.51 44.1H140.15V51.93H134.51V44.1ZM139.31 60V55.08H147.74V51.93H144.08V44.1H147.83V40.95H126.83V44.1H130.58V51.93H126.98V55.08H135.35V60H124.88V63.18H149.9V60H139.31ZM175.428 38.7H171.438V58.53H175.428V38.7ZM156.738 47.46C156.738 45.18 158.358 43.86 160.398 43.86C162.468 43.86 164.028 45.18 164.028 47.46C164.028 49.68 162.468 51.03 160.398 51.03C158.358 51.03 156.738 49.68 156.738 47.46ZM167.898 47.46C167.898 43.38 164.628 40.44 160.398 40.44C156.168 40.44 152.868 43.38 152.868 47.46C152.868 51.48 156.168 54.45 160.398 54.45C164.628 54.45 167.898 51.48 167.898 47.46ZM160.998 62.67V56.58H157.038V65.82H176.118V62.67H160.998ZM202.425 52.92H187.035V49.83H201.585V46.77H187.035V43.86H202.215V40.68H183.015V56.04H202.425V52.92ZM180.075 59.91V63.12H205.095V59.91H180.075ZM222.133 60.03V55.92H230.503V52.74H214.483V49.65H229.873V40.44H210.523V43.59H225.973V46.56H210.553V55.92H218.173V60.03H207.673V63.27H232.693V60.03H222.133ZM40.33 84.73H36.37V102.58H38.29C41.05 102.58 44.23 102.43 47.83 101.77L47.5 98.44C44.86 98.92 42.49 99.1 40.33 99.16V84.73ZM55.18 81.64V92.29H52.69V82.15H49V107.98H52.69V95.5H55.18V109.27H58.96V81.64H55.18ZM64.1477 84.49V87.7H73.1777C72.4577 93.82 69.0377 98.2 62.6177 101.5L64.8377 104.53C74.0177 99.88 77.1677 92.77 77.1677 84.49H64.1477ZM88.3877 92.2H84.5177V81.64H80.5577V109.24H84.5177V95.47H88.3877V92.2ZM111.382 97.72V100.42H116.572V102.61H120.532V81.67H116.572V97.72H111.382ZM106.072 85.48C107.902 85.48 109.192 86.2 109.192 87.55C109.192 88.9 107.902 89.59 106.072 89.59C104.212 89.59 102.922 88.9 102.922 87.55C102.922 86.2 104.212 85.48 106.072 85.48ZM106.072 92.47C110.092 92.47 112.942 90.49 112.942 87.55C112.942 84.61 110.092 82.6 106.072 82.6C102.022 82.6 99.2022 84.61 99.2022 87.55C99.2022 90.49 102.022 92.47 106.072 92.47ZM104.602 105.67V101.89H108.412V96.67C110.632 96.49 112.852 96.25 115.012 95.89L114.742 93.07C108.922 93.82 102.202 93.88 97.1622 93.91L97.6722 97.06C99.7422 97.06 102.052 97.03 104.482 96.91V100.6H100.642V108.82H121.132V105.67H104.602ZM132.86 100.42C131 100.42 129.62 99.16 129.62 97.06C129.62 94.96 131 93.67 132.86 93.67C134.72 93.67 136.07 94.96 136.07 97.03C136.07 99.16 134.72 100.42 132.86 100.42ZM132.86 90.46C128.84 90.46 125.84 93.19 125.84 97.03C125.84 100.93 128.84 103.66 132.86 103.66C136.85 103.66 139.82 100.93 139.82 97.03C139.82 93.19 136.85 90.46 132.86 90.46ZM134.81 82.15H130.85V85.75H124.73V88.9H140.81V85.75H134.81V82.15ZM150.53 92.47H146.57V81.67H142.61V109.3H146.57V95.74H150.53V92.47ZM174.738 89.14H159.528V82.66H155.568V92.29H174.738V89.14ZM159.288 100.48H155.298V108.7H174.888V105.55H159.288V100.48ZM152.478 95.11V98.29H177.498V95.11H152.478ZM206.012 95.71H209.972V81.67H206.012V85.72H200.972V88.87H206.012V95.71ZM203.372 92.35C199.052 91.03 197.162 87.82 197.162 84.55V82.57H193.172V84.55C193.172 88.06 191.252 91.45 186.662 92.83L188.702 95.92C191.852 94.93 194.012 92.89 195.242 90.31C196.412 92.62 198.452 94.45 201.362 95.38L203.372 92.35ZM195.692 105.91V104.29H209.972V96.88H191.762V99.91H206.072V101.44H191.792V108.97H210.752V105.91H195.692ZM232.38 90.01H221.43V85.93H232.38V90.01ZM236.28 82.84H217.53V93.13H236.28V82.84ZM221.31 100.81H217.35V108.82H236.7V105.67H221.31V100.81ZM214.44 95.32V98.44H225.33V103.15H229.29V98.44H239.46V95.32H214.44ZM244.587 97.99C249.387 97.12 252.867 94.72 254.577 91.42C256.317 94.66 259.827 96.97 264.687 97.84L266.187 94.72C260.247 93.85 257.037 90.52 256.677 86.92H264.957V83.77H244.137V86.92H252.417C252.057 90.52 248.847 93.97 243.057 94.87L244.587 97.99ZM256.557 102.88V96.79H252.597V102.88H242.067V106.09H267.087V102.88H256.557ZM279.835 83.8H275.845V87.82C275.845 92.95 273.745 98.23 269.095 100.42L271.465 103.63C274.585 102.1 276.655 99.19 277.855 95.68C278.995 98.98 280.945 101.65 283.825 103.12L286.225 100C281.785 97.81 279.835 92.8 279.835 87.82V83.8ZM295.315 92.29H291.295V81.67H287.335V109.3H291.295V95.59H295.315V92.29ZM54.43 131.12V133.49H48.31V136.46H54.43V138.53H58.39V124.67H54.43V128.15H49.36C49.48 127.37 49.54 126.56 49.54 125.72H37.21V128.87H45.19C44.71 132.11 41.89 134.75 35.62 135.98L36.94 139.16C43 137.84 46.9 135.23 48.58 131.12H54.43ZM44.17 148.91V147.17H58.39V139.55H40.18V142.67H54.43V144.23H40.21V152.03H58.96V148.91H44.17ZM77.5277 140.24C78.2777 135.68 78.2777 132.32 78.2777 129.65V127.4H64.0577V130.55H74.3777C74.3777 133.01 74.2877 135.98 73.6577 139.91L77.5277 140.24ZM71.4977 135.32H67.5977V143.48C65.8577 143.51 64.1777 143.51 62.6477 143.51L63.0077 146.75C67.8077 146.72 73.9877 146.6 79.5977 145.64L79.3877 142.79C76.8677 143.09 74.1677 143.27 71.4977 143.36V135.32ZM88.3277 135.77H84.6077V124.64H80.6477V152.27H84.6077V139.07H88.3277V135.77ZM113.812 136.97C109.432 135.89 107.512 133.13 107.422 130.43H112.882V127.31H107.422V124.58H103.462V127.31H98.0622V130.43H103.462C103.372 133.37 101.422 136.25 97.0722 137.42L98.9022 140.51C102.082 139.64 104.272 137.75 105.502 135.35C106.762 137.51 108.892 139.19 112.042 140.03L113.812 136.97ZM119.392 144.71V141.59H100.882V144.71H107.812C107.122 146.75 104.512 148.67 99.6822 149.21L101.092 152.21C105.502 151.64 108.562 149.93 110.152 147.59C111.712 149.93 114.772 151.7 119.152 152.24L120.592 149.24C115.822 148.67 113.182 146.69 112.432 144.71H119.392ZM119.032 130.85V124.67H115.072V140.39H119.032V134.12H122.692V130.85H119.032ZM126.41 127.52V130.67H135.62C135.05 136.79 131.99 141.11 124.94 144.5L127.01 147.62C136.82 142.88 139.67 135.98 139.67 127.52H126.41ZM143.9 124.64V152.27H147.89V124.64H143.9Z" fill="#2D59B8"/>
<path d="M232.147 254.854L225.41 248.118L225.41 271.651L248.943 271.651L242.178 264.886C246.472 259.09 253.297 255.325 261.063 255.325C264.917 255.325 268.535 256.266 271.741 257.914C267.27 251.06 259.563 246.5 250.767 246.5C243.354 246.5 236.736 249.765 232.147 254.854Z" fill="#2D59B8"/>
<path d="M242.708 282.065C238.854 282.065 235.236 281.123 232.029 279.476C236.501 286.359 244.208 290.89 253.003 290.89C260.416 290.89 267.035 287.654 271.624 282.535L278.361 289.301L278.361 265.768L254.827 265.768L261.593 272.534C257.298 278.299 250.474 282.065 242.708 282.065Z" fill="#2D59B8"/>
<path d="M334.211 235C316.823 235 302.742 249.112 302.742 266.5C302.742 283.888 316.823 298 334.211 298C351.63 298 365.742 283.888 365.742 266.5C365.742 249.112 351.63 235 334.211 235ZM334.242 291.7C320.319 291.7 309.042 280.423 309.042 266.5C309.042 252.577 320.319 241.3 334.242 241.3C348.165 241.3 359.442 252.577 359.442 266.5C359.442 280.423 348.165 291.7 334.242 291.7Z" fill="#2D59B8"/>
<path d="M334.664 253.012C338.431 253.012 341.175 253.831 342.895 255.469C344.642 257.08 345.515 259.305 345.515 262.144C345.515 263.836 345.161 265.433 344.451 266.935C343.741 268.409 342.553 269.597 340.888 270.498C339.25 271.399 337.012 271.849 334.172 271.849H331.511V282.25H325.327V253.012H334.664ZM334.336 258.09H331.511V266.771H333.558C335.305 266.771 336.684 266.43 337.694 265.747C338.731 265.038 339.25 263.905 339.25 262.349C339.25 259.509 337.612 258.09 334.336 258.09Z" fill="#2D59B8"/>
<path d="M194.889 240H152.111C148.75 240 146 242.75 146 246.111V288.889C146 292.25 148.75 295 152.111 295H194.889C198.25 295 201 292.25 201 288.889V246.111C201 242.75 198.25 240 194.889 240ZM164.333 282.778H158.222V261.389H164.333V282.778ZM176.556 282.778H170.444V252.222H176.556V282.778ZM188.778 282.778H182.667V270.556H188.778V282.778Z" fill="#2D59B8"/>
<defs>
<filter id="filter0_d" x="0" y="0" width="408" height="367" filterUnits="userSpaceOnUse" color-interpolation-filters="sRGB">
<feFlood flood-opacity="0" result="BackgroundImageFix"/>
<feColorMatrix in="SourceAlpha" type="matrix" values="0 0 0 0 0 0 0 0 0 0 0 0 0 0 0 0 0 0 127 0"/>
<feOffset dy="4"/>
<feGaussianBlur stdDeviation="2"/>
<feColorMatrix type="matrix" values="0 0 0 0 0 0 0 0 0 0 0 0 0 0 0 0 0 0 0.25 0"/>
<feBlend mode="normal" in2="BackgroundImageFix" result="effect1_dropShadow"/>
<feBlend mode="normal" in="SourceGraphic" in2="effect1_dropShadow" result="shape"/>
</filter>
</defs>
</svg>
