<svg width="408" height="367" viewBox="0 0 408 367" fill="none" xmlns="http://www.w3.org/2000/svg">
<g filter="url(#filter0_d)">
<path d="M4 0H404V349C404 354.523 399.523 359 394 359H14C8.47714 359 4 354.523 4 349V0Z" fill="white"/>
</g>
<path d="M57.46 46.26H42.28V42.57H57.31V39.42H38.35V49.38H57.46V46.26ZM47.71 63.3C44.02 63.3 42.13 62.67 42.13 61.23C42.13 59.79 44.02 59.13 47.71 59.13C51.4 59.13 53.29 59.79 53.29 61.23C53.29 62.67 51.4 63.3 47.71 63.3ZM47.71 56.13C41.74 56.13 38.14 57.96 38.14 61.23C38.14 64.47 41.74 66.3 47.71 66.3C53.68 66.3 57.31 64.47 57.31 61.23C57.31 57.96 53.68 56.13 47.71 56.13ZM35.32 51.3V54.54H60.31V51.3H35.32ZM65.6477 61.29H81.0677V66.21H85.0277V58.17H65.6477V61.29ZM77.3777 53.46V51.48H85.4177V48.48H69.9077V46.68H84.8477V39.21H65.9477V42.21H80.9477V43.89H66.0077V51.48H73.4177V53.46H62.8877V56.61H87.9077V53.46H77.3777ZM113.495 38.64H109.505V59.46H113.495V38.64ZM107.855 52.56C105.845 52.74 103.715 52.89 101.585 52.98V50.28H106.415V47.13H96.8453V43.47H106.235V40.32H92.8853V50.28H97.6253V53.13C95.1953 53.19 92.7953 53.19 90.6053 53.19L91.1153 56.34C96.1853 56.34 102.365 56.22 108.125 55.38L107.855 52.56ZM98.7653 62.67V57.96H94.7753V65.82H114.215V62.67H98.7653ZM144.02 52.71H147.98V38.67H144.02V42.72H138.98V45.87H144.02V52.71ZM141.38 49.35C137.06 48.03 135.17 44.82 135.17 41.55V39.57H131.18V41.55C131.18 45.06 129.26 48.45 124.67 49.83L126.71 52.92C129.86 51.93 132.02 49.89 133.25 47.31C134.42 49.62 136.46 51.45 139.37 52.38L141.38 49.35ZM133.7 62.91V61.29H147.98V53.88H129.77V56.91H144.08V58.44H129.8V65.97H148.76V62.91H133.7ZM170.388 47.01H159.438V42.93H170.388V47.01ZM174.288 39.84H155.538V50.13H174.288V39.84ZM159.318 57.81H155.358V65.82H174.708V62.67H159.318V57.81ZM152.448 52.32V55.44H163.338V60.15H167.298V55.44H177.468V52.32H152.448ZM182.595 54.99C187.395 54.12 190.875 51.72 192.585 48.42C194.325 51.66 197.835 53.97 202.695 54.84L204.195 51.72C198.255 50.85 195.045 47.52 194.685 43.92H202.965V40.77H182.145V43.92H190.425C190.065 47.52 186.855 50.97 181.065 51.87L182.595 54.99ZM194.565 59.88V53.79H190.605V59.88H180.075V63.09H205.095V59.88H194.565ZM217.843 40.8H213.853V44.82C213.853 49.95 211.753 55.23 207.103 57.42L209.473 60.63C212.593 59.1 214.663 56.19 215.863 52.68C217.003 55.98 218.953 58.65 221.833 60.12L224.233 57C219.793 54.81 217.843 49.8 217.843 44.82V40.8ZM233.323 49.29H229.303V38.67H225.343V66.3H229.303V52.59H233.323V49.29ZM241.48 56.97C239.98 56.97 239.08 54.9 239.08 50.64C239.08 46.41 239.98 44.34 241.48 44.34C243.01 44.34 243.88 46.41 243.88 50.64C243.88 54.9 243.01 56.97 241.48 56.97ZM249.61 48.84H247.42C246.97 43.68 244.75 40.62 241.48 40.62C237.82 40.62 235.51 44.4 235.51 50.64C235.51 56.91 237.82 60.69 241.48 60.69C244.84 60.69 247.09 57.45 247.45 52.05H249.61V65.07H253.3V39.12H249.61V48.84ZM255.22 38.64V66.27H258.97V38.64H255.22ZM35.29 94.57V97.69H60.25V94.57H35.29ZM47.71 99.19C41.74 99.19 38.14 101.02 38.14 104.26C38.14 107.5 41.74 109.33 47.71 109.33C53.68 109.33 57.31 107.5 57.31 104.26C57.31 101.02 53.68 99.19 47.71 99.19ZM47.71 102.19C51.4 102.19 53.29 102.85 53.29 104.26C53.29 105.7 51.4 106.33 47.71 106.33C44.02 106.33 42.13 105.7 42.13 104.26C42.13 102.85 44.02 102.19 47.71 102.19ZM47.77 82.27C41.71 82.27 37.78 84.34 37.78 87.67C37.78 91.06 41.71 93.1 47.77 93.1C53.86 93.1 57.79 91.06 57.79 87.67C57.79 84.34 53.86 82.27 47.77 82.27ZM47.77 85.3C51.55 85.3 53.71 86.11 53.71 87.67C53.71 89.29 51.55 90.07 47.77 90.07C44.02 90.07 41.86 89.29 41.86 87.67C41.86 86.11 44.02 85.3 47.77 85.3ZM78.5177 91.81C75.5177 92.44 72.7877 92.65 67.8677 92.68V86.44H76.2377V83.29H63.9377V95.86H66.2477C72.3677 95.86 75.5177 95.68 78.9077 94.96L78.5177 91.81ZM80.7077 105.79H70.5077V103.36H80.7077V105.79ZM80.7077 100.33H70.5077V97.81H66.6077V108.94H84.6377V97.81H80.7077V100.33ZM88.2977 87.61H84.6377V81.64H80.6777V96.46H84.6377V90.85H88.2977V87.61ZM98.4653 100.42C96.6053 100.42 95.2253 99.16 95.2253 97.06C95.2253 94.96 96.6053 93.67 98.4653 93.67C100.325 93.67 101.675 94.96 101.675 97.03C101.675 99.16 100.325 100.42 98.4653 100.42ZM98.4653 90.46C94.4453 90.46 91.4453 93.19 91.4453 97.03C91.4453 100.93 94.4453 103.66 98.4653 103.66C102.455 103.66 105.425 100.93 105.425 97.03C105.425 93.19 102.455 90.46 98.4653 90.46ZM100.415 82.15H96.4553V85.75H90.3353V88.9H106.415V85.75H100.415V82.15ZM116.135 92.47H112.175V81.67H108.215V109.3H112.175V95.74H116.135V92.47ZM139.593 99.91C140.703 94.03 140.703 90.13 140.703 86.68V84.04H120.633V87.19H136.743C136.743 90.4 136.683 94.24 135.633 99.46L139.593 99.91ZM130.893 102.79V93.28H126.933V102.79H118.113V105.97H143.103V102.79H130.893ZM162.108 87.1H167.748V94.93H162.108V87.1ZM166.908 103V98.08H175.338V94.93H171.678V87.1H175.428V83.95H154.428V87.1H158.178V94.93H154.578V98.08H162.948V103H152.478V106.18H177.498V103H166.908ZM203.025 81.7H199.035V101.53H203.025V81.7ZM184.335 90.46C184.335 88.18 185.955 86.86 187.995 86.86C190.065 86.86 191.625 88.18 191.625 90.46C191.625 92.68 190.065 94.03 187.995 94.03C185.955 94.03 184.335 92.68 184.335 90.46ZM195.495 90.46C195.495 86.38 192.225 83.44 187.995 83.44C183.765 83.44 180.465 86.38 180.465 90.46C180.465 94.48 183.765 97.45 187.995 97.45C192.225 97.45 195.495 94.48 195.495 90.46ZM188.595 105.67V99.58H184.635V108.82H203.715V105.67H188.595ZM230.023 95.92H214.633V92.83H229.183V89.77H214.633V86.86H229.813V83.68H210.613V99.04H230.023V95.92ZM207.673 102.91V106.12H232.693V102.91H207.673ZM258.717 94.27C254.457 92.83 252.537 89.5 252.477 86.35H257.847V83.2H242.997V86.35H248.427C248.367 89.77 246.357 93.28 241.917 94.78L243.927 97.9C247.137 96.85 249.297 94.63 250.527 91.93C251.697 94.39 253.767 96.37 256.797 97.36L258.717 94.27ZM246.327 102.49H261.207V109.33H265.167V99.34H246.327V102.49ZM261.207 81.7V88.27H257.127V91.45H261.207V98.11H265.167V81.7H261.207ZM286.345 92.68C282.745 93.28 279.535 93.4 274.975 93.43V91.15H283.765V82.93H271.045V86.08H279.865V88.21H271.075V96.61H273.505C278.995 96.61 282.685 96.52 286.795 95.83L286.345 92.68ZM288.685 105.82H278.155V103.6H288.685V105.82ZM288.685 100.57H278.155V98.23H274.225V108.97H292.615V98.23H288.685V100.57ZM288.625 81.67V97.09H292.615V81.67H288.625ZM305.243 100.42C303.383 100.42 302.003 99.16 302.003 97.06C302.003 94.96 303.383 93.67 305.243 93.67C307.103 93.67 308.453 94.96 308.453 97.03C308.453 99.16 307.103 100.42 305.243 100.42ZM305.243 90.46C301.223 90.46 298.223 93.19 298.223 97.03C298.223 100.93 301.223 103.66 305.243 103.66C309.233 103.66 312.203 100.93 312.203 97.03C312.203 93.19 309.233 90.46 305.243 90.46ZM307.193 82.15H303.233V85.75H297.113V88.9H313.193V85.75H307.193V82.15ZM322.913 92.47H318.953V81.67H314.993V109.3H318.953V95.74H322.913V92.47ZM326.39 84.52V87.67H335.6C335.03 93.79 331.97 98.11 324.92 101.5L326.99 104.62C336.8 99.88 339.65 92.98 339.65 84.52H326.39ZM343.88 81.64V109.27H347.87V81.64H343.88Z" fill="#2D59B8"/>
<path d="M296.981 282.145V314.428C296.981 319.326 292.974 323.334 288.075 323.334H271.823C269.418 323.334 267.147 322.377 265.477 320.684L248 302.918C248 302.918 250.805 300.179 250.894 300.135C251.384 299.712 251.985 299.489 252.653 299.489C253.143 299.489 253.588 299.623 253.989 299.845C254.078 299.867 263.585 305.322 263.585 305.322V278.806C263.585 276.958 265.077 275.466 266.925 275.466C268.772 275.466 270.264 276.958 270.264 278.806V294.39H272.491V273.24C272.491 271.392 273.982 269.9 275.83 269.9C277.678 269.9 279.17 271.392 279.17 273.24V294.39H281.396V275.466C281.396 273.618 282.888 272.126 284.736 272.126C286.584 272.126 288.075 273.618 288.075 275.466V294.39H290.302V282.145C290.302 280.297 291.794 278.806 293.642 278.806C295.489 278.806 296.981 280.297 296.981 282.145Z" fill="#2D59B8"/>
<path d="M317.019 282.145V314.428C317.019 319.326 321.026 323.334 325.925 323.334H342.177C344.582 323.334 346.853 322.377 348.523 320.684L366 302.918C366 302.918 363.195 300.179 363.106 300.135C362.616 299.712 362.015 299.489 361.347 299.489C360.857 299.489 360.412 299.623 360.011 299.845C359.922 299.867 350.415 305.322 350.415 305.322V278.806C350.415 276.958 348.923 275.466 347.075 275.466C345.228 275.466 343.736 276.958 343.736 278.806V294.39H341.509V273.24C341.509 271.392 340.018 269.9 338.17 269.9C336.322 269.9 334.83 271.392 334.83 273.24V294.39H332.604V275.466C332.604 273.618 331.112 272.126 329.264 272.126C327.416 272.126 325.925 273.618 325.925 275.466V294.39H323.698V282.145C323.698 280.297 322.206 278.806 320.358 278.806C318.511 278.806 317.019 280.297 317.019 282.145Z" fill="#2D59B8"/>
<path d="M306.553 193C288.957 193 274.708 207.281 274.708 224.877C274.708 242.473 288.957 256.754 306.553 256.754C324.181 256.754 338.462 242.473 338.462 224.877C338.462 207.281 324.181 193 306.553 193ZM306.585 250.379C292.496 250.379 281.083 238.967 281.083 224.877C281.083 210.788 292.496 199.375 306.585 199.375C320.675 199.375 332.087 210.788 332.087 224.877C332.087 238.967 320.675 250.379 306.585 250.379Z" fill="#2D59B8"/>
<path d="M307.012 211.228C310.824 211.228 313.601 212.056 315.341 213.714C317.11 215.344 317.994 217.596 317.994 220.469C317.994 222.182 317.634 223.798 316.916 225.317C316.198 226.809 314.996 228.011 313.311 228.923C311.653 229.834 309.388 230.29 306.515 230.29H303.821V240.816H297.563V211.228H307.012ZM306.68 216.366H303.821V225.152H305.893C307.661 225.152 309.056 224.806 310.078 224.116C311.128 223.397 311.653 222.251 311.653 220.676C311.653 217.803 309.996 216.366 306.68 216.366Z" fill="#2D59B8"/>
<defs>
<filter id="filter0_d" x="0" y="0" width="408" height="367" filterUnits="userSpaceOnUse" color-interpolation-filters="sRGB">
<feFlood flood-opacity="0" result="BackgroundImageFix"/>
<feColorMatrix in="SourceAlpha" type="matrix" values="0 0 0 0 0 0 0 0 0 0 0 0 0 0 0 0 0 0 127 0"/>
<feOffset dy="4"/>
<feGaussianBlur stdDeviation="2"/>
<feColorMatrix type="matrix" values="0 0 0 0 0 0 0 0 0 0 0 0 0 0 0 0 0 0 0.25 0"/>
<feBlend mode="normal" in2="BackgroundImageFix" result="effect1_dropShadow"/>
<feBlend mode="normal" in="SourceGraphic" in2="effect1_dropShadow" result="shape"/>
</filter>
</defs>
</svg>
